<mxfile host="app.diagrams.net" modified="2024-02-20T07:39:12.879Z" agent="Mozilla/5.0 (Windows NT 10.0; Win64; x64) AppleWebKit/537.36 (KHTML, like Gecko) Chrome/121.0.0.0 Safari/537.36" etag="hpQzd4QDeDSrzG4eeRQW" version="22.1.16" type="github" pages="2">
  <diagram name="第 1 页" id="wY7QZC1gU-3saNQr9FUa">
    <mxGraphModel dx="1434" dy="780" grid="1" gridSize="10" guides="1" tooltips="1" connect="1" arrows="1" fold="1" page="1" pageScale="1" pageWidth="827" pageHeight="1169" math="0" shadow="0">
      <root>
        <mxCell id="0" />
        <mxCell id="1" parent="0" />
        <mxCell id="NxM_PirA2G1H0vAM96JS-23" style="edgeStyle=orthogonalEdgeStyle;rounded=0;orthogonalLoop=1;jettySize=auto;html=1;entryX=0.5;entryY=0;entryDx=0;entryDy=0;" edge="1" parent="1" source="NxM_PirA2G1H0vAM96JS-2" target="NxM_PirA2G1H0vAM96JS-3">
          <mxGeometry relative="1" as="geometry" />
        </mxCell>
        <mxCell id="NxM_PirA2G1H0vAM96JS-2" value="&lt;font style=&quot;font-size: 18px;&quot;&gt;用户发起分页查询请求&lt;/font&gt;" style="rounded=0;whiteSpace=wrap;html=1;" vertex="1" parent="1">
          <mxGeometry x="200" y="80" width="320" height="60" as="geometry" />
        </mxCell>
        <mxCell id="NxM_PirA2G1H0vAM96JS-24" style="edgeStyle=orthogonalEdgeStyle;rounded=0;orthogonalLoop=1;jettySize=auto;html=1;entryX=0.5;entryY=0;entryDx=0;entryDy=0;" edge="1" parent="1" source="NxM_PirA2G1H0vAM96JS-3" target="NxM_PirA2G1H0vAM96JS-4">
          <mxGeometry relative="1" as="geometry" />
        </mxCell>
        <mxCell id="NxM_PirA2G1H0vAM96JS-3" value="&lt;font style=&quot;font-size: 18px;&quot;&gt;检查是否有可用已导出分页文件&lt;/font&gt;" style="rounded=0;whiteSpace=wrap;html=1;" vertex="1" parent="1">
          <mxGeometry x="200" y="200" width="320" height="60" as="geometry" />
        </mxCell>
        <mxCell id="NxM_PirA2G1H0vAM96JS-25" style="edgeStyle=orthogonalEdgeStyle;rounded=0;orthogonalLoop=1;jettySize=auto;html=1;entryX=0.5;entryY=0;entryDx=0;entryDy=0;" edge="1" parent="1" source="NxM_PirA2G1H0vAM96JS-4" target="NxM_PirA2G1H0vAM96JS-5">
          <mxGeometry relative="1" as="geometry" />
        </mxCell>
        <mxCell id="NxM_PirA2G1H0vAM96JS-4" value="&lt;font style=&quot;font-size: 18px;&quot;&gt;执行脚本一次性查询并导出数据到文件&lt;/font&gt;" style="rounded=0;whiteSpace=wrap;html=1;" vertex="1" parent="1">
          <mxGeometry x="200" y="320" width="320" height="60" as="geometry" />
        </mxCell>
        <mxCell id="NxM_PirA2G1H0vAM96JS-26" style="edgeStyle=orthogonalEdgeStyle;rounded=0;orthogonalLoop=1;jettySize=auto;html=1;entryX=0.5;entryY=0;entryDx=0;entryDy=0;" edge="1" parent="1" source="NxM_PirA2G1H0vAM96JS-5" target="NxM_PirA2G1H0vAM96JS-6">
          <mxGeometry relative="1" as="geometry" />
        </mxCell>
        <mxCell id="NxM_PirA2G1H0vAM96JS-5" value="&lt;font style=&quot;font-size: 18px;&quot;&gt;执行脚本将导出的文件切分成每个文件N条记录的小文件(最后一页可能不足N)&lt;/font&gt;" style="rounded=0;whiteSpace=wrap;html=1;" vertex="1" parent="1">
          <mxGeometry x="200" y="440" width="320" height="60" as="geometry" />
        </mxCell>
        <mxCell id="NxM_PirA2G1H0vAM96JS-6" value="&lt;font style=&quot;font-size: 18px;&quot;&gt;查询对应的分页文件文件并读取数据返回该分页记录数据&lt;/font&gt;" style="rounded=0;whiteSpace=wrap;html=1;" vertex="1" parent="1">
          <mxGeometry x="200" y="560" width="320" height="60" as="geometry" />
        </mxCell>
        <mxCell id="NxM_PirA2G1H0vAM96JS-10" value="" style="group" vertex="1" connectable="0" parent="1">
          <mxGeometry x="550" y="46" width="100" height="64" as="geometry" />
        </mxCell>
        <mxCell id="NxM_PirA2G1H0vAM96JS-8" value="" style="curved=1;endArrow=none;html=1;rounded=0;endFill=0;" edge="1" parent="NxM_PirA2G1H0vAM96JS-10">
          <mxGeometry width="50" height="50" relative="1" as="geometry">
            <mxPoint x="-30" y="64" as="sourcePoint" />
            <mxPoint x="50" y="14" as="targetPoint" />
            <Array as="points">
              <mxPoint x="20" y="64" />
              <mxPoint y="14" />
            </Array>
          </mxGeometry>
        </mxCell>
        <mxCell id="NxM_PirA2G1H0vAM96JS-9" value="&lt;b&gt;&lt;font style=&quot;font-size: 14px;&quot;&gt;S1002&lt;/font&gt;&lt;/b&gt;" style="text;html=1;strokeColor=none;fillColor=none;align=center;verticalAlign=middle;whiteSpace=wrap;rounded=0;" vertex="1" parent="NxM_PirA2G1H0vAM96JS-10">
          <mxGeometry x="40" width="60" height="30" as="geometry" />
        </mxCell>
        <mxCell id="NxM_PirA2G1H0vAM96JS-11" value="" style="group" vertex="1" connectable="0" parent="1">
          <mxGeometry x="550" y="170" width="100" height="64" as="geometry" />
        </mxCell>
        <mxCell id="NxM_PirA2G1H0vAM96JS-12" value="" style="curved=1;endArrow=none;html=1;rounded=0;endFill=0;" edge="1" parent="NxM_PirA2G1H0vAM96JS-11">
          <mxGeometry width="50" height="50" relative="1" as="geometry">
            <mxPoint x="-30" y="64" as="sourcePoint" />
            <mxPoint x="50" y="14" as="targetPoint" />
            <Array as="points">
              <mxPoint x="20" y="64" />
              <mxPoint y="14" />
            </Array>
          </mxGeometry>
        </mxCell>
        <mxCell id="NxM_PirA2G1H0vAM96JS-13" value="&lt;b&gt;&lt;font style=&quot;font-size: 14px;&quot;&gt;S1004&lt;/font&gt;&lt;/b&gt;" style="text;html=1;strokeColor=none;fillColor=none;align=center;verticalAlign=middle;whiteSpace=wrap;rounded=0;" vertex="1" parent="NxM_PirA2G1H0vAM96JS-11">
          <mxGeometry x="40" width="60" height="30" as="geometry" />
        </mxCell>
        <mxCell id="NxM_PirA2G1H0vAM96JS-14" value="" style="group" vertex="1" connectable="0" parent="1">
          <mxGeometry x="550" y="290" width="100" height="64" as="geometry" />
        </mxCell>
        <mxCell id="NxM_PirA2G1H0vAM96JS-15" value="" style="curved=1;endArrow=none;html=1;rounded=0;endFill=0;" edge="1" parent="NxM_PirA2G1H0vAM96JS-14">
          <mxGeometry width="50" height="50" relative="1" as="geometry">
            <mxPoint x="-30" y="64" as="sourcePoint" />
            <mxPoint x="50" y="14" as="targetPoint" />
            <Array as="points">
              <mxPoint x="20" y="64" />
              <mxPoint y="14" />
            </Array>
          </mxGeometry>
        </mxCell>
        <mxCell id="NxM_PirA2G1H0vAM96JS-16" value="&lt;b&gt;&lt;font style=&quot;font-size: 14px;&quot;&gt;S1006&lt;/font&gt;&lt;/b&gt;" style="text;html=1;strokeColor=none;fillColor=none;align=center;verticalAlign=middle;whiteSpace=wrap;rounded=0;" vertex="1" parent="NxM_PirA2G1H0vAM96JS-14">
          <mxGeometry x="40" width="60" height="30" as="geometry" />
        </mxCell>
        <mxCell id="NxM_PirA2G1H0vAM96JS-17" value="" style="group" vertex="1" connectable="0" parent="1">
          <mxGeometry x="550" y="410" width="100" height="64" as="geometry" />
        </mxCell>
        <mxCell id="NxM_PirA2G1H0vAM96JS-18" value="" style="curved=1;endArrow=none;html=1;rounded=0;endFill=0;" edge="1" parent="NxM_PirA2G1H0vAM96JS-17">
          <mxGeometry width="50" height="50" relative="1" as="geometry">
            <mxPoint x="-30" y="64" as="sourcePoint" />
            <mxPoint x="50" y="14" as="targetPoint" />
            <Array as="points">
              <mxPoint x="20" y="64" />
              <mxPoint y="14" />
            </Array>
          </mxGeometry>
        </mxCell>
        <mxCell id="NxM_PirA2G1H0vAM96JS-19" value="&lt;b&gt;&lt;font style=&quot;font-size: 14px;&quot;&gt;S1008&lt;/font&gt;&lt;/b&gt;" style="text;html=1;strokeColor=none;fillColor=none;align=center;verticalAlign=middle;whiteSpace=wrap;rounded=0;" vertex="1" parent="NxM_PirA2G1H0vAM96JS-17">
          <mxGeometry x="40" width="60" height="30" as="geometry" />
        </mxCell>
        <mxCell id="NxM_PirA2G1H0vAM96JS-20" value="" style="group" vertex="1" connectable="0" parent="1">
          <mxGeometry x="550" y="521" width="100" height="64" as="geometry" />
        </mxCell>
        <mxCell id="NxM_PirA2G1H0vAM96JS-21" value="" style="curved=1;endArrow=none;html=1;rounded=0;endFill=0;" edge="1" parent="NxM_PirA2G1H0vAM96JS-20">
          <mxGeometry width="50" height="50" relative="1" as="geometry">
            <mxPoint x="-30" y="64" as="sourcePoint" />
            <mxPoint x="50" y="14" as="targetPoint" />
            <Array as="points">
              <mxPoint x="20" y="64" />
              <mxPoint y="14" />
            </Array>
          </mxGeometry>
        </mxCell>
        <mxCell id="NxM_PirA2G1H0vAM96JS-22" value="&lt;b&gt;&lt;font style=&quot;font-size: 14px;&quot;&gt;S1010&lt;/font&gt;&lt;/b&gt;" style="text;html=1;strokeColor=none;fillColor=none;align=center;verticalAlign=middle;whiteSpace=wrap;rounded=0;" vertex="1" parent="NxM_PirA2G1H0vAM96JS-20">
          <mxGeometry x="40" width="60" height="30" as="geometry" />
        </mxCell>
      </root>
    </mxGraphModel>
  </diagram>
  <diagram id="mOxQB9PWCrZbwr5YmVsg" name="第 2 页">
    <mxGraphModel dx="985" dy="710" grid="1" gridSize="10" guides="1" tooltips="1" connect="1" arrows="1" fold="1" page="1" pageScale="1" pageWidth="827" pageHeight="1169" math="0" shadow="0">
      <root>
        <mxCell id="0" />
        <mxCell id="1" parent="0" />
        <mxCell id="puxLk8tYEH7e1qmvn0lW-7" style="edgeStyle=orthogonalEdgeStyle;rounded=0;orthogonalLoop=1;jettySize=auto;html=1;" edge="1" parent="1" source="puxLk8tYEH7e1qmvn0lW-1" target="puxLk8tYEH7e1qmvn0lW-2">
          <mxGeometry relative="1" as="geometry" />
        </mxCell>
        <mxCell id="puxLk8tYEH7e1qmvn0lW-1" value="&lt;font style=&quot;font-size: 14px;&quot;&gt;发起查询分页请求&lt;/font&gt;" style="rounded=1;whiteSpace=wrap;html=1;" vertex="1" parent="1">
          <mxGeometry x="290" y="160" width="150" height="70" as="geometry" />
        </mxCell>
        <mxCell id="puxLk8tYEH7e1qmvn0lW-8" style="edgeStyle=orthogonalEdgeStyle;rounded=0;orthogonalLoop=1;jettySize=auto;html=1;" edge="1" parent="1" source="puxLk8tYEH7e1qmvn0lW-2" target="puxLk8tYEH7e1qmvn0lW-3">
          <mxGeometry relative="1" as="geometry" />
        </mxCell>
        <mxCell id="puxLk8tYEH7e1qmvn0lW-13" style="edgeStyle=orthogonalEdgeStyle;rounded=0;orthogonalLoop=1;jettySize=auto;html=1;entryX=1;entryY=0.5;entryDx=0;entryDy=0;exitX=1;exitY=0.5;exitDx=0;exitDy=0;" edge="1" parent="1" source="puxLk8tYEH7e1qmvn0lW-2" target="puxLk8tYEH7e1qmvn0lW-5">
          <mxGeometry relative="1" as="geometry">
            <Array as="points">
              <mxPoint x="550" y="390" />
              <mxPoint x="550" y="840" />
            </Array>
          </mxGeometry>
        </mxCell>
        <mxCell id="puxLk8tYEH7e1qmvn0lW-2" value="检查是否有可用的导出文件" style="rhombus;whiteSpace=wrap;html=1;" vertex="1" parent="1">
          <mxGeometry x="275" y="330" width="180" height="120" as="geometry" />
        </mxCell>
        <mxCell id="puxLk8tYEH7e1qmvn0lW-10" style="edgeStyle=orthogonalEdgeStyle;rounded=0;orthogonalLoop=1;jettySize=auto;html=1;entryX=0.5;entryY=0;entryDx=0;entryDy=0;" edge="1" parent="1" source="puxLk8tYEH7e1qmvn0lW-3" target="puxLk8tYEH7e1qmvn0lW-4">
          <mxGeometry relative="1" as="geometry" />
        </mxCell>
        <mxCell id="puxLk8tYEH7e1qmvn0lW-3" value="执行脚本一次查询并导出文件" style="rounded=1;whiteSpace=wrap;html=1;" vertex="1" parent="1">
          <mxGeometry x="272.5" y="520" width="185" height="75" as="geometry" />
        </mxCell>
        <mxCell id="puxLk8tYEH7e1qmvn0lW-11" style="edgeStyle=orthogonalEdgeStyle;rounded=0;orthogonalLoop=1;jettySize=auto;html=1;" edge="1" parent="1" source="puxLk8tYEH7e1qmvn0lW-4" target="puxLk8tYEH7e1qmvn0lW-5">
          <mxGeometry relative="1" as="geometry" />
        </mxCell>
        <mxCell id="puxLk8tYEH7e1qmvn0lW-4" value="&lt;font style=&quot;font-size: 14px;&quot;&gt;执行脚本将文件切分成N行记录的小文件&lt;/font&gt;" style="rounded=1;whiteSpace=wrap;html=1;" vertex="1" parent="1">
          <mxGeometry x="272.5" y="660" width="185" height="70" as="geometry" />
        </mxCell>
        <mxCell id="puxLk8tYEH7e1qmvn0lW-12" style="edgeStyle=orthogonalEdgeStyle;rounded=0;orthogonalLoop=1;jettySize=auto;html=1;entryX=0.5;entryY=0;entryDx=0;entryDy=0;" edge="1" parent="1" source="puxLk8tYEH7e1qmvn0lW-5" target="puxLk8tYEH7e1qmvn0lW-6">
          <mxGeometry relative="1" as="geometry" />
        </mxCell>
        <mxCell id="puxLk8tYEH7e1qmvn0lW-5" value="&lt;font style=&quot;font-size: 14px;&quot;&gt;查询到当前分页的小文件并读取&lt;/font&gt;" style="rounded=1;whiteSpace=wrap;html=1;" vertex="1" parent="1">
          <mxGeometry x="275" y="800" width="180" height="80" as="geometry" />
        </mxCell>
        <mxCell id="puxLk8tYEH7e1qmvn0lW-6" value="&lt;font style=&quot;font-size: 14px;&quot;&gt;解析和整合当前分页小文件的记录数据并返回&lt;/font&gt;" style="rounded=1;whiteSpace=wrap;html=1;" vertex="1" parent="1">
          <mxGeometry x="277.5" y="950" width="175" height="80" as="geometry" />
        </mxCell>
        <mxCell id="puxLk8tYEH7e1qmvn0lW-9" value="否" style="text;html=1;align=center;verticalAlign=middle;resizable=0;points=[];autosize=1;strokeColor=none;fillColor=none;" vertex="1" parent="1">
          <mxGeometry x="360" y="458" width="40" height="30" as="geometry" />
        </mxCell>
        <mxCell id="puxLk8tYEH7e1qmvn0lW-14" value="是" style="text;html=1;align=center;verticalAlign=middle;resizable=0;points=[];autosize=1;strokeColor=none;fillColor=none;" vertex="1" parent="1">
          <mxGeometry x="540" y="578" width="40" height="30" as="geometry" />
        </mxCell>
      </root>
    </mxGraphModel>
  </diagram>
</mxfile>
